<svg version="1.1" xmlns="http://www.w3.org/2000/svg" xmlns:xlink="http://www.w3.org/1999/xlink" x="0px" y="0px" width="1000px" height="1000px" viewBox="0 0 1000 1000">
<g fill="#e6ffff">
<path d="M500,10C229.4,10,10,229.4,10,500s219.4,490,490,490s490-219.4,490-490S770.6,10,500,10z M500,941C256.5,941,59,743.5,59,500S256.5,59,500,59s441,197.5,441,441S743.5,941,500,941z"/>
<path d="M255,500c0,135.3,109.7,245,245,245c135.3,0,245-109.7,245-245c0-135.3-109.7-245-245-245C364.7,255,255,364.7,255,500z"/>
</g>
</svg>
