<svg version="1.1" id="lmc" xmlns="http://www.w3.org/2000/svg" xmlns:xlink="http://www.w3.org/1999/xlink" x="0px" y="0px"
width="425px" height="425px" viewBox="0 0 425 425">
<g fill="#e6ffff">
<path d="M230.396+389.574C194.874+389.574+160.531+375.341+135.227+350.321C126.79+353.954+117.629+355.865+108.395+355.865C71.044+355.865+40.66+325.48+40.66+288.121C40.66+284.13+41.042+280.082+41.79+276.034C15.517+256.599+0+226.052+0+193.212C0+141.563+38.985+97.717+89.707+91.125C102.412+57.887+134.057+35.916+170.074+35.916C201.507+35.916+230.25+53.092+245.328+80.282C256.188+76.527+267.511+74.625+279.11+74.625C336.254+74.625+382.741+121.104+382.741+178.24C382.741+180.638+382.635+183.077+382.424+185.661C408.094+195.708+425.489+220.711+425.489+248.69C425.489+288.357+390.959+320.14+350.763+316.068C327.63+360.913+281.037+389.574+230.396+389.574Z"/>
</g>
</svg>
