<?xml version="1.0" encoding="UTF-8" standalone="no"?> <!-- Created with Vectornator for iOS (http://vectornator.io/) --><!DOCTYPE svg PUBLIC "-//W3C//DTD SVG 1.1//EN" "http://www.w3.org/Graphics/SVG/1.1/DTD/svg11.dtd">
<svg style="fill-rule:evenodd;clip-rule:evenodd;stroke-linecap:round;stroke-linejoin:round;" xmlns:vectornator="http://vectornator.io" xmlns:xlink="http://www.w3.org/1999/xlink" xmlns="http://www.w3.org/2000/svg" xml:space="preserve" version="1.1" viewBox="0 0 500 500">
<metadata>
<vectornator:setting key="DynamicGuides" value="1"/>
<vectornator:setting key="Units" value="Points"/>
<vectornator:setting key="GridSpacing" value="36"/>
<vectornator:setting key="SnapToGuides" value="1"/>
<vectornator:setting key="RulersVisible" value="1"/>
</metadata>
<defs/>
<g id="Layer_2" vectornator:layerName="Layer_2">
<path d="M0-1L500-1L500-1L500+501L500+501L0+501L0+501L0-1L0-1Z" opacity="1" fill="#000000"/>
</g>
<g id="Layer_1" vectornator:layerName="Layer_1">
<g opacity="1">
<path d="M17.256+474.852L17.843+474.157C18.718+474.949+19.558+475.345+20.721+475.345C21.848+475.345+22.592+474.745+22.592+473.917L22.592+473.894C22.592+473.115+22.172+472.67+20.409+472.298C18.478+471.879+17.591+471.255+17.591+469.876L17.591+469.852C17.591+468.533+18.754+467.561+20.349+467.561C21.572+467.561+22.448+467.909+23.299+468.592L22.747+469.324C21.968+468.688+21.188+468.412+20.325+468.412C19.234+468.412+18.538+469.012+18.538+469.767L18.538+469.791C18.538+470.582+18.97+471.026+20.817+471.422C22.688+471.829+23.551+472.513+23.551+473.797L23.551+473.82C23.551+475.259+22.352+476.195+20.685+476.195C19.354+476.195+18.263+475.751+17.256+474.852Z" opacity="1" fill="#92fcff"/>
<path d="M24.947+473.005L24.947+472.981C24.947+471.23+26.315+469.744+28.125+469.744C29.301+469.744+30.032+470.235+30.608+470.847L29.996+471.495C29.504+470.978+28.953+470.559+28.113+470.559C26.854+470.559+25.894+471.626+25.894+472.957L25.894+472.98C25.894+474.324+26.877+475.391+28.173+475.391C28.965+475.391+29.576+474.995+30.068+474.467L30.655+475.019C30.031+475.715+29.288+476.218+28.124+476.218C26.315+476.219+24.947+474.744+24.947+473.005Z" opacity="1" fill="#92fcff"/>
<path d="M32.183+469.875L33.107+469.875L33.107+471.494C33.563+470.462+34.462+469.719+35.637+469.766L35.637+470.761L35.565+470.761C34.21+470.761+33.107+471.733+33.107+473.604L33.107+476.075L32.183+476.075C32.183+476.075+32.183+469.875+32.183+469.875Z" opacity="1" fill="#92fcff"/>
<path d="M36.393+473.005L36.393+472.981C36.393+471.23+37.761+469.744+39.631+469.744C41.49+469.744+42.858+471.207+42.858+472.958L42.858+472.981C42.858+474.732+41.479+476.219+39.608+476.219C37.748+476.219+36.393+474.756+36.393+473.005ZM41.91+473.005L41.91+472.981C41.91+471.65+40.914+470.559+39.607+470.559C38.264+470.559+37.34+471.65+37.34+472.957L37.34+472.98C37.34+474.312+38.323+475.391+39.631+475.391C40.974+475.392+41.91+474.312+41.91+473.005Z" opacity="1" fill="#92fcff"/>
<path d="M44.612+467.32L45.536+467.32L45.536+476.075L44.612+476.075L44.612+467.32Z" opacity="1" fill="#92fcff"/>
<path d="M47.768+467.32L48.692+467.32L48.692+476.075L47.768+476.075L47.768+467.32Z" opacity="1" fill="#92fcff"/>
<path d="M54.764+474.432L54.764+470.691L53.9+470.691L53.9+469.876L54.764+469.876L54.764+468.005L55.687+468.005L55.687+469.876L57.654+469.876L57.654+470.691L55.687+470.691L55.687+474.313C55.687+475.068+56.107+475.344+56.73+475.344C57.042+475.344+57.306+475.283+57.629+475.128L57.629+475.919C57.305+476.087+56.958+476.184+56.514+476.184C55.519+476.184+54.764+475.691+54.764+474.432Z" opacity="1" fill="#92fcff"/>
<path d="M58.722+473.005L58.722+472.981C58.722+471.23+60.09+469.744+61.96+469.744C63.819+469.744+65.187+471.207+65.187+472.958L65.187+472.981C65.187+474.732+63.808+476.219+61.937+476.219C60.077+476.219+58.722+474.756+58.722+473.005ZM64.239+473.005L64.239+472.981C64.239+471.65+63.243+470.559+61.936+470.559C60.593+470.559+59.669+471.65+59.669+472.957L59.669+472.98C59.669+474.312+60.652+475.391+61.96+475.391C63.303+475.392+64.239+474.312+64.239+473.005Z" opacity="1" fill="#92fcff"/>
<path d="M73.192+475.416C74.044+475.416+74.643+475.067+75.147+474.54L75.723+475.056C75.099+475.751+74.344+476.219+73.168+476.219C71.465+476.219+70.074+474.912+70.074+472.981C70.074+471.182+71.333+469.744+73.049+469.744C74.884+469.744+75.939+471.207+75.939+473.03C75.939+473.114+75.939+473.21+75.927+473.353L71.01+473.353C71.141+474.66+72.1+475.416+73.192+475.416ZM75.003+472.609C74.895+471.481+74.247+470.522+73.024+470.522C71.957+470.522+71.141+471.41+71.009+472.609L75.003+472.609Z" opacity="1" fill="#92fcff"/>
<path d="M79.072+472.921L76.733+469.875L77.789+469.875L79.624+472.273L81.459+469.875L82.49+469.875L80.139+472.896L82.585+476.075L81.518+476.075L79.599+473.545L77.668+476.075L76.637+476.075L79.072+472.921Z" opacity="1" fill="#92fcff"/>
<path d="M84.088+469.875L85.012+469.875L85.012+471.122C85.516+470.378+86.247+469.743+87.387+469.743C88.873+469.743+90.349+470.918+90.349+472.957L90.349+472.98C90.349+475.007+88.886+476.207+87.387+476.207C86.236+476.207+85.491+475.583+85.012+474.888L85.012+477.994L84.088+477.994L84.088+469.875ZM89.402+472.993L89.402+472.969C89.402+471.506+88.394+470.571+87.219+470.571C86.068+470.571+84.976+471.543+84.976+472.958L84.976+472.981C84.976+474.42+86.068+475.38+87.219+475.38C88.418+475.38+89.402+474.492+89.402+472.993Z" opacity="1" fill="#92fcff"/>
<path d="M92.14+467.32L93.064+467.32L93.064+476.075L92.14+476.075L92.14+467.32Z" opacity="1" fill="#92fcff"/>
<path d="M94.829+473.005L94.829+472.981C94.829+471.23+96.196+469.744+98.067+469.744C99.926+469.744+101.294+471.207+101.294+472.958L101.294+472.981C101.294+474.732+99.914+476.219+98.044+476.219C96.184+476.219+94.829+474.756+94.829+473.005ZM100.346+473.005L100.346+472.981C100.346+471.65+99.35+470.559+98.043+470.559C96.699+470.559+95.775+471.65+95.775+472.957L95.775+472.98C95.775+474.312+96.758+475.391+98.066+475.391C99.411+475.392+100.346+474.312+100.346+473.005Z" opacity="1" fill="#92fcff"/>
<path d="M102.964+469.875L103.888+469.875L103.888+471.494C104.344+470.462+105.243+469.719+106.418+469.766L106.418+470.761L106.346+470.761C104.992+470.761+103.888+471.733+103.888+473.604L103.888+476.075L102.964+476.075C102.964+476.075+102.964+469.875+102.964+469.875Z" opacity="1" fill="#92fcff"/>
<path d="M110.292+475.416C111.144+475.416+111.743+475.067+112.247+474.54L112.823+475.056C112.199+475.751+111.443+476.219+110.268+476.219C108.565+476.219+107.173+474.912+107.173+472.981C107.173+471.182+108.433+469.744+110.148+469.744C111.983+469.744+113.039+471.207+113.039+473.03C113.039+473.114+113.039+473.21+113.026+473.353L108.109+473.353C108.242+474.66+109.202+475.416+110.292+475.416ZM112.104+472.609C111.996+471.481+111.348+470.522+110.125+470.522C109.058+470.522+108.242+471.41+108.11+472.609L112.104+472.609Z" opacity="1" fill="#92fcff"/>
</g>
<path d="M17.924+321.455L98.464+321.455L98.464+321.455L98.464+401.995L98.464+401.995L17.924+401.995L17.924+401.995L17.924+321.455L17.924+321.455Z" opacity="1" fill="#ffffff"/>
<path d="M136.769+321.455L165.157+321.455C184.89+321.455+196.199+330.571+196.199+345.688L196.199+345.92C196.199+361.614+184.197+370.499+164.695+370.499L139.308+370.499L139.308+402.233L136.769+402.233C136.769+402.233+136.769+321.455+136.769+321.455ZM164.695+368.191C182.581+368.191+193.659+360.344+193.659+346.035L193.659+345.805C193.659+332.073+183.043+323.764+164.926+323.764L139.308+323.764L139.308+368.191C139.308+368.191+164.695+368.191+164.695+368.191Z" opacity="1" fill="#ffffff"/>
<path d="M214.771+321.455L217.31+321.455L217.31+402.233L214.771+402.233L214.771+321.455Z" opacity="1" fill="#ffffff"/>
<path d="M267.273+361.153L235.539+321.456L238.539+321.456L268.889+359.537L299.123+321.456L302.239+321.456L270.39+361.153L303.394+402.234L300.393+402.234L268.89+362.768L237.501+402.234L234.385+402.234L267.273+361.153Z" opacity="1" fill="#ffffff"/>
<path d="M319.657+321.455L376.086+321.455L376.086+323.763L322.196+323.763L322.196+360.459L371.125+360.459L371.125+362.767L322.196+362.767L322.196+399.924L376.664+399.924L376.664+402.232L319.658+402.232L319.658+321.455L319.657+321.455Z" opacity="1" fill="#ffffff"/>
<path d="M395.927+321.455L398.467+321.455L398.467+399.925L448.087+399.925L448.087+402.233L395.927+402.233C395.927+402.233+395.927+321.455+395.927+321.455Z" opacity="1" fill="#ffffff"/>
<path d="M57.797+337.918L46.262+341.502L44.602+335.909L59.545+330.753L64.613+330.753L64.613+392.359L57.797+392.359C57.797+392.359+57.797+337.918+57.797+337.918Z" opacity="1" fill="#000000"/>
<path d="M19.905+23.162L21.65+23.162L21.65+78.703L19.905+78.703L19.905+23.162Z" opacity="1" fill="#b5b5b5"/>
<path d="M38.707+23.162L77.11+23.162L77.11+24.749L40.452+24.749L40.452+50.536L73.697+50.536L73.697+52.123L40.452+52.123L40.452+78.703L38.707+78.703C38.707+78.703+38.707+23.162+38.707+23.162Z" opacity="1" fill="#b5b5b5"/>
<g opacity="1">
<path stroke="#92fcff" stroke-width="1" d="M448.415+472.174L119.486+472.174" fill="none" stroke-linecap="butt" opacity="1" stroke-linejoin="miter"/>
<path d="M445.102+468.084L444.42+468.816L448.032+472.173L444.42+475.53L445.102+476.262L449.5+472.173L445.102+468.084Z" opacity="1" fill="#92fcff"/>
</g>
<g opacity="1">
<path d="M17.52+237.646L19.052+237.646L33.712+282.292L47.905+237.513L49.038+237.513L63.298+282.359L77.958+237.647L79.424+237.647L63.898+284.625L62.632+284.625L48.439+240.246L34.313+284.625L33.047+284.625L17.52+237.646Z" opacity="1" fill="#b5b5b5"/>
<path d="M89.287+237.646L121.871+237.646L121.871+238.979L90.753+238.979L90.753+260.169L119.006+260.169L119.006+261.502L90.753+261.502L90.753+282.958L122.205+282.958L122.205+284.291L89.287+284.291L89.287+237.646Z" opacity="1" fill="#b5b5b5"/>
<path d="M133.333+237.646L152.391+237.646C158.454+237.646+162.919+239.179+165.785+242.044C167.917+244.176+169.117+247.108+169.117+250.707L169.117+250.84C169.117+258.703+162.853+263.367+153.858+263.901L169.384+284.292L167.585+284.292L152.126+263.968L134.801+263.968L134.801+284.292L133.335+284.292L133.335+237.646L133.333+237.646ZM151.658+262.635C162.453+262.635+167.65+257.504+167.65+250.906L167.65+250.773C167.65+243.377+161.92+238.979+152.257+238.979L134.799+238.979L134.799+262.635C134.799+262.635+151.658+262.635+151.658+262.635Z" opacity="1" fill="#b5b5b5"/>
<path d="M181.578+237.646L214.162+237.646L214.162+238.979L183.043+238.979L183.043+260.169L211.296+260.169L211.296+261.502L183.043+261.502L183.043+282.958L214.495+282.958L214.495+284.291L181.578+284.291L181.578+237.646Z" opacity="1" fill="#b5b5b5"/>
<path d="M242.216+261.035L242.216+260.901C242.216+248.174+251.278+236.846+265.405+236.846C279.532+236.846+288.594+248.174+288.594+260.901L288.594+261.035C288.594+273.763+279.532+285.091+265.405+285.091C251.278+285.091+242.216+273.763+242.216+261.035ZM287.129+261.102L287.129+260.969C287.129+249.041+278.333+238.179+265.339+238.179C252.278+238.179+243.683+248.841+243.683+260.835L243.683+260.969C243.683+272.897+252.479+283.758+265.472+283.758C278.532+283.758+287.129+273.097+287.129+261.102Z" opacity="1" fill="#b5b5b5"/>
<path d="M300.39+237.646L301.657+237.646L337.107+281.893L337.107+237.646L338.505+237.646L338.505+284.291L337.239+284.291L301.789+240.045L301.789+284.291L300.39+284.291C300.39+284.291+300.39+237.646+300.39+237.646Z" opacity="1" fill="#b5b5b5"/>
<path d="M352.365+237.646L353.832+237.646L353.832+282.958L382.484+282.958L382.484+284.291L352.365+284.291C352.365+284.291+352.365+237.646+352.365+237.646Z" opacity="1" fill="#b5b5b5"/>
<path d="M396.871+264.767L377.146+237.646L378.878+237.646L397.669+263.501L416.261+237.646L417.993+237.646L398.336+264.767L398.336+284.291L396.87+284.291L396.87+264.767L396.871+264.767Z" opacity="1" fill="#b5b5b5"/>
</g>
<g opacity="1">
<path d="M122.464-58.469L122.464-60.0862C123.987-60.2346+125.049-60.4827+125.651-60.8303C126.253-61.178+126.702-62.0003+126.999-63.2971L128.663-63.2971L128.663-46.5862L126.413-46.5862L126.413-58.469L122.464-58.469Z" opacity="1" fill="#ffffff"/>
<path d="M140.007-63.3674C142.178-63.3674+143.749-62.4729+144.717-60.6839C145.467-59.301+145.842-57.4065+145.842-55.0003C145.842-52.719+145.503-50.8323+144.823-49.3401C143.839-47.1995+142.229-46.1292+139.995-46.1292C137.979-46.1292+136.479-47.0042+135.495-48.7542C134.674-50.2151+134.264-52.176+134.264-54.637C134.264-56.5432+134.51-58.1799+135.003-59.5471C135.924-62.094+137.592-63.3674+140.007-63.3674ZM139.983-48.051C141.077-48.051+141.948-48.5354+142.596-49.5042C143.245-50.4729+143.569-52.2776+143.569-54.9182C143.569-56.8245+143.335-58.3928+142.866-59.6233C142.397-60.8538+141.487-61.469+140.135-61.469C138.893-61.469+137.985-60.885+137.411-59.7171C136.837-58.5491+136.549-56.8284+136.549-54.5549C136.549-52.844+136.733-51.469+137.1-50.4299C137.663-48.844+138.624-48.051+139.983-48.051Z" opacity="1" fill="#ffffff"/>
<path d="M148.913-49.1409L151.362-49.1409L151.362-46.5862L148.913-46.5862L148.913-49.1409Z" opacity="1" fill="#ffffff"/>
<path d="M160.022-63.3674C162.194-63.3674+163.764-62.4729+164.733-60.6839C165.483-59.301+165.858-57.4065+165.858-55.0003C165.858-52.719+165.518-50.8323+164.839-49.3401C163.854-47.1995+162.245-46.1292+160.01-46.1292C157.995-46.1292+156.495-47.0042+155.51-48.7542C154.69-50.2151+154.28-52.176+154.28-54.637C154.28-56.5432+154.526-58.1799+155.018-59.5471C155.94-62.094+157.608-63.3674+160.022-63.3674ZM159.999-48.051C161.092-48.051+161.964-48.5354+162.612-49.5042C163.26-50.4729+163.585-52.2776+163.585-54.9182C163.585-56.8245+163.35-58.3928+162.882-59.6233C162.413-60.8538+161.503-61.469+160.151-61.469C158.909-61.469+158.001-60.885+157.426-59.7171C156.852-58.5491+156.565-56.8284+156.565-54.5549C156.565-52.844+156.749-51.469+157.116-50.4299C157.678-48.844+158.639-48.051+159.999-48.051Z" opacity="1" fill="#ffffff"/>
<path d="M173.37-63.3674C175.542-63.3674+177.112-62.4729+178.081-60.6839C178.831-59.301+179.206-57.4065+179.206-55.0003C179.206-52.719+178.866-50.8323+178.186-49.3401C177.202-47.1995+175.592-46.1292+173.358-46.1292C171.342-46.1292+169.842-47.0042+168.858-48.7542C168.038-50.2151+167.628-52.176+167.628-54.637C167.628-56.5432+167.874-58.1799+168.366-59.5471C169.288-62.094+170.956-63.3674+173.37-63.3674ZM173.346-48.051C174.44-48.051+175.311-48.5354+175.96-49.5042C176.608-50.4729+176.932-52.2776+176.932-54.9182C176.932-56.8245+176.698-58.3928+176.229-59.6233C175.76-60.8538+174.85-61.469+173.499-61.469C172.257-61.469+171.348-60.885+170.774-59.7171C170.2-58.5491+169.913-56.8284+169.913-54.5549C169.913-52.844+170.096-51.469+170.464-50.4299C171.026-48.844+171.987-48.051+173.346-48.051Z" opacity="1" fill="#ffffff"/>
<path d="M186.717-63.3674C188.889-63.3674+190.46-62.4729+191.428-60.6839C192.178-59.301+192.553-57.4065+192.553-55.0003C192.553-52.719+192.214-50.8323+191.534-49.3401C190.549-47.1995+188.94-46.1292+186.706-46.1292C184.69-46.1292+183.19-47.0042+182.206-48.7542C181.385-50.2151+180.975-52.176+180.975-54.637C180.975-56.5432+181.221-58.1799+181.714-59.5471C182.635-62.094+184.303-63.3674+186.717-63.3674ZM186.694-48.051C187.788-48.051+188.659-48.5354+189.307-49.5042C189.956-50.4729+190.28-52.2776+190.28-54.9182C190.28-56.8245+190.046-58.3928+189.577-59.6233C189.108-60.8538+188.198-61.469+186.846-61.469C185.604-61.469+184.696-60.885+184.122-59.7171C183.548-58.5491+183.26-56.8284+183.26-54.5549C183.26-52.844+183.444-51.469+183.811-50.4299C184.374-48.844+185.335-48.051+186.694-48.051Z" opacity="1" fill="#ffffff"/>
</g>
<g opacity="1">
<path d="M128.465+81.7138L128.465+23.3622L126.016+23.3622L111.149+33.202L111.149+35.6942L125.844+26.0692L126.016+26.0692L126.016+81.7138L128.465+81.7138Z" opacity="1" fill="#ffffff"/>
<path d="M152.065+50.4755C152.065+33.202+158.768+24.2216+168.092+24.2216C177.416+24.2216+184.119+33.202+184.119+50.4755L184.119+54.6005C184.119+71.8739+177.416+80.8544+168.092+80.8544C158.768+80.8544+152.065+71.8739+152.065+54.6005L152.065+50.4755ZM149.529+54.4286C149.529+73.2489+157.178+83.0888+168.092+83.0888C179.006+83.0888+186.654+73.2489+186.654+54.4286L186.654+50.6473C186.654+31.827+179.006+21.9872+168.092+21.9872C157.178+21.9872+149.529+31.827+149.529+50.6473L149.529+54.4286Z" opacity="1" fill="#ffffff"/>
<path d="M201.789+79.4364C201.789+81.0263+203.078+82.3153+204.668+82.3153C206.258+82.3153+207.59+81.0263+207.59+79.4364C207.59+77.8466+206.258+76.5145+204.668+76.5145C203.078+76.5145+201.789+77.8466+201.789+79.4364Z" opacity="1" fill="#ffffff"/>
<path d="M225.259+50.4755C225.259+33.202+231.963+24.2216+241.287+24.2216C250.611+24.2216+257.314+33.202+257.314+50.4755L257.314+54.6005C257.314+71.8739+250.611+80.8544+241.287+80.8544C231.963+80.8544+225.259+71.8739+225.259+54.6005L225.259+50.4755ZM222.724+54.4286C222.724+73.2489+230.373+83.0888+241.287+83.0888C252.201+83.0888+259.849+73.2489+259.849+54.4286L259.849+50.6473C259.849+31.827+252.201+21.9872+241.287+21.9872C230.373+21.9872+222.724+31.827+222.724+50.6473L222.724+54.4286Z" opacity="1" fill="#ffffff"/>
<path d="M277.863+50.4755C277.863+33.202+284.566+24.2216+293.89+24.2216C303.214+24.2216+309.917+33.202+309.917+50.4755L309.917+54.6005C309.917+71.8739+303.214+80.8544+293.89+80.8544C284.566+80.8544+277.863+71.8739+277.863+54.6005L277.863+50.4755ZM275.328+54.4286C275.328+73.2489+282.976+83.0888+293.89+83.0888C304.804+83.0888+312.453+73.2489+312.453+54.4286L312.453+50.6473C312.453+31.827+304.804+21.9872+293.89+21.9872C282.976+21.9872+275.328+31.827+275.328+50.6473L275.328+54.4286Z" opacity="1" fill="#ffffff"/>
<path d="M330.466+50.4755C330.466+33.202+337.169+24.2216+346.493+24.2216C355.818+24.2216+362.521+33.202+362.521+50.4755L362.521+54.6005C362.521+71.8739+355.818+80.8544+346.493+80.8544C337.169+80.8544+330.466+71.8739+330.466+54.6005L330.466+50.4755ZM327.931+54.4286C327.931+73.2489+335.579+83.0888+346.493+83.0888C357.407+83.0888+365.056+73.2489+365.056+54.4286L365.056+50.6473C365.056+31.827+357.407+21.9872+346.493+21.9872C335.579+21.9872+327.931+31.827+327.931+50.6473L327.931+54.4286Z" opacity="1" fill="#ffffff"/>
</g>
<g opacity="1">
<path d="M46.4236+178.081L19.197+178.081L19.197+127.065L16.9704+127.065L16.9704+180.112L46.4236+180.112L46.4236+178.081Z" opacity="1" fill="#ffffff"/>
<path d="M58.3853+180.112L58.3853+127.065L56.1587+127.065L56.1587+180.112L58.3853+180.112Z" opacity="1" fill="#ffffff"/>
<path d="M108.511+140.464C108.12+133.862+102.456+125.815+90.4642+125.815C77.6908+125.815+70.933+134.995+70.933+148.55L70.933+157.964C70.933+170.972+76.7533+181.362+90.8548+181.362C101.206+181.362+109.097+175.737+109.097+164.956L109.097+155.034L90.5814+155.034L90.5814+157.065L107.027+157.065L107.027+164.956C107.027+174.214+100.23+179.331+90.972+179.331C78.5111+179.331+73.1595+170.112+73.1595+157.964L73.1595+148.55C73.1595+136.128+79.2142+127.847+90.5033+127.847C101.441+127.847+105.972+135.62+106.441+140.464L108.511+140.464Z" opacity="1" fill="#ffffff"/>
<path d="M157.192+180.112L157.192+127.065L154.965+127.065L154.965+151.167L123.09+151.167L123.09+127.065L120.863+127.065L120.863+180.112L123.09+180.112L123.09+153.198L154.965+153.198L154.965+180.112L157.192+180.112Z" opacity="1" fill="#ffffff"/>
<path d="M185.599+180.112L185.599+129.136L203.138+129.136L203.138+127.065L165.755+127.065L165.755+129.136L183.372+129.136L183.372+180.112L185.599+180.112Z" opacity="1" fill="#ffffff"/>
<path d="M228.615+180.112L228.615+156.206L247.092+127.065L244.553+127.065L227.638+153.862L227.404+153.862L210.529+127.065L207.873+127.065L226.428+156.284L226.428+180.112L228.615+180.112Z" opacity="1" fill="#ffffff"/>
<path d="M285.147+178.042L257.491+178.042L257.491+153.94L283.819+153.94L283.819+151.87L257.491+151.87L257.491+129.136L285.147+129.136L285.147+127.065L255.264+127.065L255.264+180.112L285.147+180.112L285.147+178.042Z" opacity="1" fill="#ffffff"/>
<path d="M293.788+180.112L300.273+161.753L323.085+161.753L329.57+180.112L331.953+180.112L312.929+127.065L310.468+127.065L291.445+180.112L293.788+180.112ZM311.796+129.761L322.382+159.8L300.937+159.8L311.601+129.761L311.796+129.761Z" opacity="1" fill="#ffffff"/>
<path d="M357.86+127.065L340.906+127.065L340.906+180.112L343.133+180.112L343.133+156.362L359.539+156.362L371.961+180.112L374.539+180.112L361.961+155.933C368.719+154.487+373.68+149.878+373.68+141.714C373.68+132.808+367.469+127.065+357.86+127.065ZM343.133+154.37L343.133+129.058L357.508+129.058C366.024+129.058+371.414+133.901+371.414+141.714C371.414+149.526+365.906+154.37+357.508+154.37L343.133+154.37Z" opacity="1" fill="#ffffff"/>
<path d="M382.478+166.909C382.478+172.651+387.009+181.362+400.368+181.362C411.032+181.362+418.337+175.737+418.337+166.948C418.337+158.472+413.142+155.464+403.649+152.847L397.79+151.245C390.603+149.292+386.618+146.44+386.618+139.839C386.618+132.768+391.892+127.886+400.915+127.886C410.993+127.886+414.821+133.979+414.899+138.706L417.204+138.706C417.165+132.104+411.814+125.815+400.915+125.815C390.485+125.815+384.274+131.558+384.274+139.8C384.274+147.222+388.728+151.128+396.384+153.159L402.517+154.8C411.228+157.143+416.032+159.839+416.032+167.065C416.032+174.058+409.821+179.292+400.564+179.292C388.571+179.292+384.86+171.597+384.782+166.909L382.478+166.909Z" opacity="1" fill="#ffffff"/>
</g>
</g>
</svg>
