<?xml version="1.0" encoding="UTF-8" standalone="no"?> <!-- Created with Vectornator for iOS (http://vectornator.io/) --><!DOCTYPE svg PUBLIC "-//W3C//DTD SVG 1.1//EN" "http://www.w3.org/Graphics/SVG/1.1/DTD/svg11.dtd">
<svg style="fill-rule:evenodd;clip-rule:evenodd;stroke-linecap:round;stroke-linejoin:round;" xmlns:vectornator="http://vectornator.io" xmlns:xlink="http://www.w3.org/1999/xlink" xmlns="http://www.w3.org/2000/svg" xml:space="preserve" version="1.1" viewBox="0 0 425.49 425.49">
<metadata>
<vectornator:setting key="DynamicGuides" value="1"/>
<vectornator:setting key="Units" value="Points"/>
<vectornator:setting key="GridSpacing" value="36"/>
<vectornator:setting key="SnapToGuides" value="1"/>
<vectornator:setting key="RulersVisible" value="1"/>
</metadata>
<defs/>
<g id="Untitled" vectornator:layerName="Untitled">
<path d="M386.594+185.144C388.782+220.599+376.692+255.753+353.278+282.551C357.424+290.748+359.896+299.774+360.464+308.99C362.765+346.27+334.31+378.468+297.022+380.77C293.038+381.016+288.974+380.884+284.888+380.386C267.108+407.807+237.575+425.176+204.798+427.199C153.247+430.381+107.082+394.171+97.3784+343.951C63.4209+333.318+39.5422+303.086+37.3235+267.138C35.3872+235.764+50.76+206.018+76.9695+189.294C72.5526+178.686+69.9567+167.501+69.2422+155.924C65.722+98.8888+109.249+49.6269+166.277+46.1072C168.67+45.9595+171.111+45.9151+173.703+45.9665C182.15+19.7263+206.034+0.824117+233.959-0.899442C273.551-3.343+307.401+29.1635+305.813+69.534C351.998+89.8605+383.474+134.6+386.594+185.144Z" opacity="1" fill="#700fd1"/>
</g>
</svg>
