<?xml version="1.0" encoding="iso-8859-1"?>
<!-- Generator: Adobe Illustrator 18.1.1, SVG Export Plug-In . SVG Version: 6.00 Build 0)  -->
<svg version="1.1" id="Capa_1" xmlns="http://www.w3.org/2000/svg" xmlns:xlink="http://www.w3.org/1999/xlink" x="0px" y="0px"
	 viewBox="0 0 425.49 425.49" style="enable-background:new 0 0 425.49 425.49;" xml:space="preserve">
<g>
	<path style="fill:#010002;" d="M230.396,389.574c-35.522,0-69.865-14.233-95.169-39.253c-8.437,3.633-17.598,5.544-26.832,5.544
		c-37.351,0-67.735-30.385-67.735-67.744c0-3.991,0.382-8.039,1.13-12.087C15.517,256.599,0,226.052,0,193.212
		c0-51.649,38.985-95.495,89.707-102.087c12.705-33.238,44.35-55.209,80.367-55.209c31.433,0,60.176,17.176,75.254,44.366
		c10.86-3.755,22.183-5.657,33.782-5.657c57.144,0,103.631,46.479,103.631,103.615c0,2.398-0.106,4.837-0.317,7.421
		c25.67,10.047,43.065,35.05,43.065,63.029c0,39.667-34.53,71.45-74.726,67.378C327.63,360.913,281.037,389.574,230.396,389.574z
		 M138.641,330.26l4.308,4.658c22.89,24.76,53.949,38.399,87.447,38.399c46.365,0,88.87-27.304,108.289-69.572l2.666-5.828
		l6.283,1.236c3.381,0.667,6.779,1.008,10.104,1.008c28.385,0,51.486-23.101,51.486-51.486c0-23.044-15.534-43.431-37.765-49.568
		l-6.861-1.886l0.967-7.047c0.618-4.56,0.91-8.348,0.91-11.949c0-48.17-39.196-87.358-87.374-87.358
		c-11.957,0-23.573,2.398-34.546,7.121l-7.397,3.186l-3.251-7.364c-11.177-25.296-36.237-41.651-63.842-41.651
		c-30.694,0-57.469,19.663-66.63,48.934l-1.642,5.251l-5.487,0.423c-44.886,3.447-80.05,41.415-80.05,86.431
		c0,29.263,14.631,56.364,39.139,72.507l4.91,3.235l-1.544,5.674c-1.227,4.544-1.853,9.072-1.853,13.493
		c0,28.385,23.093,51.486,51.478,51.486c8.616,0,17.143-2.178,24.678-6.292L138.641,330.26z"/>
</g>
<g>
</g>
<g>
</g>
<g>
</g>
<g>
</g>
<g>
</g>
<g>
</g>
<g>
</g>
<g>
</g>
<g>
</g>
<g>
</g>
<g>
</g>
<g>
</g>
<g>
</g>
<g>
</g>
<g>
</g>
</svg>
