<?xml version="1.0" encoding="utf-8"?>
<!-- Svg Vector Icons : http://www.onlinewebfonts.com/icon -->
<!DOCTYPE svg PUBLIC "-//W3C//DTD SVG 1.1//EN" "http://www.w3.org/Graphics/SVG/1.1/DTD/svg11.dtd">
<svg version="1.1" xmlns="http://www.w3.org/2000/svg" xmlns:xlink="http://www.w3.org/1999/xlink" x="0px" y="0px" viewBox="0 0 1000 1000" enable-background="new 0 0 1000 1000" xml:space="preserve">
<metadata> Svg Vector Icons : http://www.onlinewebfonts.com/icon </metadata>
<g><g transform="translate(0.000000,511.000000) scale(0.100000,-0.100000)"><path d="M4509.6,4986.9c-1103.9-107.3-2177.1-618.4-2974.4-1413.1C53.1,2089.2-322.5-167.2,602.5-2050.4c582.6-1185.7,1599.6-2072.4,2851.7-2488.9c1009.3-334.7,2082.6-334.7,3091.9,0c2568.1,853.5,3955.6,3623.5,3102.2,6194.1c-56.2,168.7-112.4,322-122.7,342.4c-17.9,28.1-48.5,15.3-140.5-66.4c-66.4-58.8-212.1-153.3-322-212.1c-112.4-56.2-204.4-112.4-204.4-125.2c0-10.2,28.1-104.8,63.9-209.5c143.1-419.1,176.3-654.2,178.9-1262.3c0-628.6-25.6-810-181.4-1282.8c-467.6-1431-1658.4-2483.8-3145.6-2785.3c-322-63.9-1226.5-63.9-1548.5,0c-554.5,112.4-1178,380.7-1627.7,700.2c-306.6,222.3-730.8,646.5-953.1,953.1c-345,488.1-610.7,1124.3-712.9,1724.8c-43.4,263.2-48.5,378.2-38.3,792.1c20.4,700.2,125.2,1132,426.7,1737.6c201.9,403.7,437,730.8,766.6,1060.5c569.8,569.8,1267.4,948,2074.9,1126.9c350.1,76.7,1086,94.5,1464.2,35.8c329.6-51.1,628.6-132.9,940.4-260.6c122.6-48.5,227.4-86.9,232.5-81.8c2.5,5.1,43.4,76.7,89.4,158.4c46,81.8,145.6,214.7,222.3,296.4c76.7,81.8,138,155.9,138,161c0,25.6-426.7,207-712.9,301.5C5881.8,4979.3,5204.6,5053.4,4509.6,4986.9z"/><path d="M8074.3,4606.2c-419.1-76.7-794.7-337.3-1006.8-702.7c-263.2-449.7-250.4-1060.5,28.1-1494.9c112.4-173.8,380.8-419.1,559.6-508.5c827.9-419.1,1824.5,30.7,2059.6,930.1c46,176.3,51.1,465.1,10.2,656.7c-102.2,490.6-513.6,927.6-1014.5,1078.3C8534.2,4616.4,8242.9,4634.3,8074.3,4606.2z"/><path d="M4599,2398.4c-738.5-140.5-1346.7-597.9-1671.2-1254.7C2738.8,760.4,2692.8,556,2692.8,108.8c0-447.2,46-651.6,235.1-1034.9c291.3-590.3,850.9-1045.1,1497.4-1218.9c163.5-43.4,278.5-53.7,575-53.7c447.2,0,651.6,46,1034.9,235.1C6490-1738.7,6847.7-1381,7072.6-926.1c189.1,383.3,235.1,587.7,235.1,1034.9c0,447.2-46,651.6-235.1,1034.9C6781.3,1736.5,6214,2196.5,5575.2,2360C5312,2426.5,4849.5,2444.4,4599,2398.4z M5352.8,1611.3c235.1-43.4,531.5-212.1,733.4-414c306.6-309.2,447.2-651.6,447.2-1088.6c0-436.9-140.5-781.9-447.2-1086c-304.1-306.6-649-447.2-1086-447.2s-781.9,140.5-1086,447.2C3610.1-673.1,3467-330.7,3464.5,98.6c-2.6,434.4,143.1,789.6,449.7,1096.2C4300.1,1583.2,4780.5,1721.2,5352.8,1611.3z"/></g></g>
</svg>