<svg version="1.1" id="ticks2" xmlns="http://www.w3.org/2000/svg" xmlns:xlink="http://www.w3.org/1999/xlink" x="0px" y="0px"
	 width="500px" height="33px" viewBox="-100.85 0 500 33" style="enable-background:new -100.85 0 500 33;"
	 xml:space="preserve">
<rect x="-100.85" width="500" height="33"/>
<g id="Layer_2" style="display:none;">
	<rect x="0" y="-15" style="display:inline;" width="86" height="57"/>
</g>
<line style="fill:none;stroke:#FFFFFF;stroke-width:0.75;stroke-miterlimit:10;" x1="-100" y1="0" x2="-100" y2="33"/>
<line style="fill:none;stroke:#FFFFFF;stroke-width:0.5;stroke-miterlimit:10;" x1="-90" y1="12" x2="-90" y2="33"/>
<line style="fill:none;stroke:#FFFFFF;stroke-width:0.5;stroke-miterlimit:10;" x1="-80" y1="12" x2="-80" y2="33"/>
<line style="fill:none;stroke:#FFFFFF;stroke-width:0.5;stroke-miterlimit:10;" x1="-70" y1="12" x2="-70" y2="33"/>
<line style="fill:none;stroke:#FFFFFF;stroke-width:0.5;stroke-miterlimit:10;" x1="-60" y1="12" x2="-60" y2="33"/>
<line style="fill:none;stroke:#FFFFFF;stroke-width:0.5;stroke-miterlimit:10;" x1="-50" y1="12" x2="-50" y2="33"/>
<line style="fill:none;stroke:#FFFFFF;stroke-width:0.5;stroke-miterlimit:10;" x1="-40" y1="12" x2="-40" y2="33"/>
<line style="fill:none;stroke:#FFFFFF;stroke-width:0.5;stroke-miterlimit:10;" x1="-30" y1="12" x2="-30" y2="33"/>
<line style="fill:none;stroke:#FFFFFF;stroke-width:0.5;stroke-miterlimit:10;" x1="-20" y1="12" x2="-20" y2="33"/>
<line style="fill:none;stroke:#FFFFFF;stroke-width:0.5;stroke-miterlimit:10;" x1="-10" y1="12" x2="-10" y2="33"/>
<line style="fill:none;stroke:#FFFFFF;stroke-width:0.5;stroke-miterlimit:10;" x1="0" y1="6" x2="0" y2="33"/>
<line style="fill:none;stroke:#FFFFFF;stroke-width:0.5;stroke-miterlimit:10;" x1="10" y1="12" x2="10" y2="33"/>
<line style="fill:none;stroke:#FFFFFF;stroke-width:0.5;stroke-miterlimit:10;" x1="20" y1="12" x2="20" y2="33"/>
<line style="fill:none;stroke:#FFFFFF;stroke-width:0.75;stroke-miterlimit:10;" x1="30" y1="12" x2="30" y2="33"/>
<line style="fill:none;stroke:#FFFFFF;stroke-width:0.5;stroke-miterlimit:10;" x1="40" y1="12" x2="40" y2="33"/>
<line style="fill:none;stroke:#FFFFFF;stroke-width:0.5;stroke-miterlimit:10;" x1="50" y1="12" x2="50" y2="33"/>
<line style="fill:none;stroke:#FFFFFF;stroke-width:0.5;stroke-miterlimit:10;" x1="60" y1="12" x2="60" y2="33"/>
<line style="fill:none;stroke:#FFFFFF;stroke-width:0.5;stroke-miterlimit:10;" x1="70" y1="12" x2="70" y2="33"/>
<line style="fill:none;stroke:#FFFFFF;stroke-width:0.5;stroke-miterlimit:10;" x1="80" y1="12" x2="80" y2="33"/>
<line style="fill:none;stroke:#FFFFFF;stroke-width:0.5;stroke-miterlimit:10;" x1="90" y1="12" x2="90" y2="33"/>
<line style="fill:none;stroke:#FFFFFF;stroke-width:0.5;stroke-miterlimit:10;" x1="100" y1="6" x2="100" y2="33"/>
<line style="fill:none;stroke:#FFFFFF;stroke-width:0.5;stroke-miterlimit:10;" x1="110" y1="12" x2="110" y2="33"/>
<line style="fill:none;stroke:#FFFFFF;stroke-width:0.5;stroke-miterlimit:10;" x1="120" y1="12" x2="120" y2="33"/>
<line style="fill:none;stroke:#FFFFFF;stroke-width:0.5;stroke-miterlimit:10;" x1="130" y1="12" x2="130" y2="33"/>
<line style="fill:none;stroke:#FFFFFF;stroke-width:0.5;stroke-miterlimit:10;" x1="140" y1="12" x2="140" y2="33"/>
<line style="fill:none;stroke:#FFFFFF;stroke-width:0.5;stroke-miterlimit:10;" x1="150" y1="12" x2="150" y2="33"/>
<line style="fill:none;stroke:#FFFFFF;stroke-width:0.5;stroke-miterlimit:10;" x1="160" y1="12" x2="160" y2="33"/>
<line style="fill:none;stroke:#FFFFFF;stroke-width:0.5;stroke-miterlimit:10;" x1="170" y1="12" x2="170" y2="33"/>
<line style="fill:none;stroke:#FFFFFF;stroke-width:0.5;stroke-miterlimit:10;" x1="180" y1="12" x2="180" y2="33"/>
<line style="fill:none;stroke:#FFFFFF;stroke-width:0.5;stroke-miterlimit:10;" x1="190" y1="12" x2="190" y2="33"/>
<line style="fill:none;stroke:#FFFFFF;stroke-width:0.5;stroke-miterlimit:10;" x1="200" y1="6" x2="200" y2="33"/>
<line style="fill:none;stroke:#FFFFFF;stroke-width:0.5;stroke-miterlimit:10;" x1="210" y1="12" x2="210" y2="33"/>
</svg>
