<svg version="1.1" id="ticks2" xmlns="http://www.w3.org/2000/svg" xmlns:xlink="http://www.w3.org/1999/xlink" x="0px" y="0px"
	 width="500px" height="33px" viewBox="-100 0 500 33" style="enable-background:new -100 0 500 33;"
	 xml:space="preserve">
<rect x="-100" width="500" height="33"/>
<line style="fill:none;stroke:#FFFFFF;stroke-width:0.75;stroke-miterlimit:10;" x1="-75" y1="0" x2="-75" y2="33"/>
<line style="fill:none;stroke:#FFFFFF;stroke-width:0.5;stroke-miterlimit:10;" x1="-50" y1="12" x2="-50" y2="33"/>
<line style="fill:none;stroke:#FFFFFF;stroke-width:0.5;stroke-miterlimit:10;" x1="-25" y1="12" x2="-25" y2="33"/>
<line style="fill:none;stroke:#FFFFFF;stroke-width:0.5;stroke-miterlimit:10;" x1="0" y1="12" x2="0" y2="33"/>
<line style="fill:none;stroke:#FFFFFF;stroke-width:0.5;stroke-miterlimit:10;" x1="25" y1="6" x2="25" y2="33"/>
<line style="fill:none;stroke:#FFFFFF;stroke-width:0.5;stroke-miterlimit:10;" x1="50" y1="12" x2="50" y2="33"/>
<line style="fill:none;stroke:#FFFFFF;stroke-width:0.5;stroke-miterlimit:10;" x1="75" y1="12" x2="75" y2="33"/>
<line style="fill:none;stroke:#FFFFFF;stroke-width:0.5;stroke-miterlimit:10;" x1="100" y1="12" x2="100" y2="33"/>
<line style="fill:none;stroke:#FFFFFF;stroke-width:0.5;stroke-miterlimit:10;" x1="125" y1="6" x2="125" y2="33"/>
<line style="fill:none;stroke:#FFFFFF;stroke-width:0.5;stroke-miterlimit:10;" x1="150" y1="12" x2="150" y2="33"/>
<line style="fill:none;stroke:#FFFFFF;stroke-width:0.5;stroke-miterlimit:10;" x1="175" y1="12" x2="175" y2="33"/>
<line style="fill:none;stroke:#FFFFFF;stroke-width:0.5;stroke-miterlimit:10;" x1="200" y1="12" x2="200" y2="33"/>
<line style="fill:none;stroke:#FFFFFF;stroke-width:0.5;stroke-miterlimit:10;" x1="225" y1="6" x2="225" y2="33"/>
<line style="fill:none;stroke:#FFFFFF;stroke-width:0.5;stroke-miterlimit:10;" x1="250" y1="12" x2="250" y2="33"/>
<line style="fill:none;stroke:#FFFFFF;stroke-width:0.5;stroke-miterlimit:10;" x1="275" y1="12" x2="275" y2="33"/>
<line style="fill:none;stroke:#FFFFFF;stroke-width:0.5;stroke-miterlimit:10;" x1="300" y1="12" x2="300" y2="33"/>
<line style="fill:none;stroke:#FFFFFF;stroke-width:0.5;stroke-miterlimit:10;" x1="325" y1="6" x2="325" y2="33"/>
<line style="fill:none;stroke:#FFFFFF;stroke-width:0.5;stroke-miterlimit:10;" x1="350" y1="12" x2="350" y2="33"/>
<line style="fill:none;stroke:#FFFFFF;stroke-width:0.5;stroke-miterlimit:10;" x1="375" y1="12" x2="375" y2="33"/>
<line style="fill:none;stroke:#FFFFFF;stroke-width:0.5;stroke-miterlimit:10;" x1="400" y1="12" x2="400" y2="33"/>
</svg>
