<?xml version="1.0" encoding="UTF-8" standalone="no"?> <!-- Created with Vectornator for iOS (http://vectornator.io/) --><!DOCTYPE svg PUBLIC "-//W3C//DTD SVG 1.1//EN" "http://www.w3.org/Graphics/SVG/1.1/DTD/svg11.dtd">
<svg style="fill-rule:evenodd;clip-rule:evenodd;stroke-linecap:round;stroke-linejoin:round;" xmlns:vectornator="http://vectornator.io" xmlns:xlink="http://www.w3.org/1999/xlink" xmlns="http://www.w3.org/2000/svg" xml:space="preserve" version="1.1" viewBox="0 0 196.492 196.492">
<metadata>
<vectornator:setting key="DynamicGuides" value="1"/>
<vectornator:setting key="Units" value="Points"/>
<vectornator:setting key="RulersVisible" value="1"/>
<vectornator:setting key="SnapToGuides" value="1"/>
<vectornator:setting key="GridSpacing" value="36"/>
</metadata>
<defs/>
<g id="Untitled" vectornator:layerName="Untitled">
<path d="M37.096+68.389L10.236+55.028C17.968+39.484+29.732+26.21+44.256+16.641L60.76+41.691C50.655+48.35+42.472+57.581+37.096+68.389ZM0+98.733C0.001+113.356+3.141+127.434+9.335+140.575L36.472+127.786C32.178+118.675+30+108.899+30+98.732C30+96.712+30.089+94.677+30.264+92.683L0.379+90.061C0.127+92.923+0+95.841+0+98.733ZM190.513+64.916C184.543+48.632+174.298+34.151+160.884+23.041L141.747+46.145C151.078+53.874+158.201+63.936+162.346+75.243L190.513+64.916ZM166.492+98.732C166.492+110.848+163.281+122.744+157.204+133.131L183.101+148.277C191.861+133.297+196.492+116.165+196.492+98.731L166.492+98.731L166.492+98.732ZM98.246+30.486C105.574+30.486+112.777+31.637+119.655+33.908L129.059+5.42C119.142+2.147+108.775+0.485999+98.246+0.485999C91.374+0.485999+84.506+1.202+77.834+2.612L84.04+31.963C88.676+30.983+93.456+30.486+98.246+30.486ZM82.643+165.19C70.924+162.452+60.083+156.597+51.293+148.259L30.647+170.025C43.297+182.025+58.917+190.455+75.817+194.403L82.643+165.19ZM140.628+152.228C131.153+159.747+119.84+164.614+107.911+166.303L112.117+196.006C129.321+193.57+145.629+186.558+159.277+175.728L140.628+152.228Z" opacity="1" fill="#efefef"/>
</g>
</svg>
